<svg xmlns="http://www.w3.org/2000/svg" viewBox="0 0 32 32" fill="none">
  <!-- Leaf shape -->
  <path d="M16 4C10 6 6 12 8 20c1.5 6 5 9 8 10" stroke="#7A9E7E" stroke-width="2.5" stroke-linecap="round" fill="none"/>
  <path d="M16 4c6 2 10 8 8 16-1.5 6-5 9-8 10" stroke="#7A9E7E" stroke-width="2.5" stroke-linecap="round" fill="none"/>
  <!-- Center vein -->
  <path d="M16 6v24" stroke="#7A9E7E" stroke-width="1.5" stroke-linecap="round"/>
  <!-- Side veins -->
  <path d="M16 12c-3 2-5 5-5.5 8" stroke="#7A9E7E" stroke-width="1.2" stroke-linecap="round" opacity="0.5"/>
  <path d="M16 12c3 2 5 5 5.5 8" stroke="#7A9E7E" stroke-width="1.2" stroke-linecap="round" opacity="0.5"/>
  <path d="M16 18c-2 1.5-3.5 3.5-4 6" stroke="#7A9E7E" stroke-width="1" stroke-linecap="round" opacity="0.35"/>
  <path d="M16 18c2 1.5 3.5 3.5 4 6" stroke="#7A9E7E" stroke-width="1" stroke-linecap="round" opacity="0.35"/>
</svg>
